inDegrees=no
num_controls=7
num_derivatives=13
num_iterations=165
num_multipliers=7
num_parameters=0
num_slacks=7
num_states=26
objective=5.247595
objective_accelerations=0.463806
objective_balance=0.008261
objective_effort=0.390827
objective_height=4.361239
objective_ligament=0.023461
solver_duration=1375.473986
status=Solve_Succeeded
success=true
DataType=double
version=3
OpenSimVersion=4.4-2022-07-23-0e9fedc
endheader
time	/jointset/ground_pelvis/pelvis_tilt/value	/jointset/ground_pelvis/pelvis_tx/value	/jointset/ground_pelvis/pelvis_ty/value	/jointset/hip_r/hip_flexion_r/value	/jointset/hip_r/hip_adduction_r/value	/jointset/hip_r/hip_rotation_r/value	/jointset/back/lumbar_extension/value	/jointset/patellofemoral_r/patellar_flexion_r/value	/jointset/knee_r/knee_flexion_r/value	/jointset/knee_r/knee_adduction_r/value	/jointset/knee_r/knee_rotation_r/value	/jointset/ankle_r/ankle_angle_r/value	/jointset/subtalar_r/subtalar_angle_r/value	/jointset/ground_pelvis/pelvis_tilt/speed	/jointset/ground_pelvis/pelvis_tx/speed	/jointset/ground_pelvis/pelvis_ty/speed	/jointset/hip_r/hip_flexion_r/speed	/jointset/hip_r/hip_adduction_r/speed	/jointset/hip_r/hip_rotation_r/speed	/jointset/back/lumbar_extension/speed	/jointset/patellofemoral_r/patellar_flexion_r/speed	/jointset/knee_r/knee_flexion_r/speed	/jointset/knee_r/knee_adduction_r/speed	/jointset/knee_r/knee_rotation_r/speed	/jointset/ankle_r/ankle_angle_r/speed	/jointset/subtalar_r/subtalar_angle_r/speed	/forceset/tau_hip_flexion_r	/forceset/tau_hip_adduction_r	/forceset/tau_hip_rotation_r	/forceset/tau_knee_flexion_r	/forceset/tau_ankle_angle_r	/forceset/tau_subtalar_angle_r	/forceset/tau_lumbar_extension	lambda_cid13_p0	lambda_cid14_p0	lambda_cid14_p1	lambda_cid14_p2	lambda_cid14_p3	lambda_cid14_p4	lambda_cid14_p5	/jointset/ground_pelvis/pelvis_tilt/accel	/jointset/ground_pelvis/pelvis_tx/accel	/jointset/ground_pelvis/pelvis_ty/accel	/jointset/hip_r/hip_flexion_r/accel	/jointset/hip_r/hip_adduction_r/accel	/jointset/hip_r/hip_rotation_r/accel	/jointset/back/lumbar_extension/accel	/jointset/patellofemoral_r/patellar_flexion_r/accel	/jointset/knee_r/knee_flexion_r/accel	/jointset/knee_r/knee_adduction_r/accel	/jointset/knee_r/knee_rotation_r/accel	/jointset/ankle_r/ankle_angle_r/accel	/jointset/subtalar_r/subtalar_angle_r/accel	gamma_cid13_p0	gamma_cid14_p0	gamma_cid14_p1	gamma_cid14_p2	gamma_cid14_p3	gamma_cid14_p4	gamma_cid14_p5
1	-0.1534623906514859	0.007551347844981036	0.6938266855232395	1.201438170671413	-0.2323807200937529	-0.1244240478518339	-0.7853746928120463	1.365563698208437	1.365563698208436	-0.1744675463602771	0.1741892925127694	0.4362806623448919	0.1878984607885122	0.06772352736149044	0.00627226120219011	0.01519587564964874	-0.101060560375547	-0.001612779582662575	0.003073227230314713	0.00359181318711885	-0.02074337292655003	-0.02074337292655158	0.01166420479460087	-5.137578370783955e-05	0.01136170422715111	0.002961299815753267	-0.2808330715626071	0.01850172300328471	0.01679728886243842	-0.4371650804164005	-0.03474283754389948	0.01549220946126705	0.3267398945480798	-0.04302294849556376	-60.63138182366121	-5.416978731053867	3.0321818725873	7.638457680415407	-751.6594428167314	81.24481460056964	1.017388556820854	0.1497977581714792	1.489810277194887	-4.477134753092459	0.2486047885614237	-0.195782059515966	0.2418358481102603	-4.515891219655438	-4.515891219655458	0.9778506570943286	0.006592179885646973	-1.243958997539166	-0.1915244014372877	5.733417219261924e-10	-7.793331964763432e-10	1.531959865499425e-08	8.465207163611041e-09	2.152292106131852e-09	-5.087906982493741e-09	2.294822706167972e-08
1.01	-0.1527353243737373	0.007621774794397469	0.6940529869583644	1.200204712304232	-0.2323846961910025	-0.1244007906045712	-0.7853239753916117	1.365131011760796	1.365131011760792	-0.1742994333797186	0.1741889302051242	0.4363323129985824	0.1879180380327578	0.07764553470008517	0.007836869141596304	0.03006234787306638	-0.1456164871626432	0.0008079869847850788	0.001588159277776194	0.006753479585015507	-0.06579222143152283	-0.06579222143152426	0.02198110943451763	-1.52316074059504e-05	-0.001002663594228253	0.000950785763857226	-0.2816913114192903	0.01858598501856479	0.01684839295560256	-0.4370686190046821	-0.03506825432953342	0.01547644692188216	0.3278967358426517	-0.04301547810425042	-60.77454000041917	-5.445316256693212	3.032617396360151	7.422635178327393	-752.401684236001	81.2244540103472	0.9729794656351767	0.1633537740555301	1.484754053103332	-4.442626306916865	0.2373823440319681	-0.1233757819333637	0.383603338401739	-4.499128162049382	-4.499128162049348	1.062019040683437	0.003014243269922107	-1.228457761167594	-0.2063089516194796	3.825534882626728e-09	3.510684107004539e-09	3.615769498839029e-08	3.9424589868524e-08	1.967842326333891e-09	-1.052738842549465e-08	6.161537731590073e-08
1.02	-0.1519103634939499	0.00770856011565404	0.6944278907873609	1.1985261337361	-0.2323647506719361	-0.1243920853606065	-0.7852355870466429	1.364247887528878	1.36424788752887	-0.174027469618102	0.1741891070805862	0.4362611714051601	0.1879174113275739	0.08730244776893413	0.009543935570217675	0.04491635442399707	-0.1900846005656882	0.003171543680059726	0.000162826572815125	0.01112599809380601	-0.1108309297817428	-0.1108309297817438	0.03243436100415721	5.646083959641587e-05	-0.01319831488481849	-0.001079490070188819	-0.2825495512759886	0.01867024703382238	0.0168994970486883	-0.436972157592974	-0.03539367111517154	0.01546068438245461	0.3290535771372107	-0.04301451650285199	-60.92625147348065	-5.470197506961454	3.026842886498167	7.209394962112939	-753.2855862754619	81.24501276805292	0.9643697028717192	0.1782894560144998	1.487317142697492	-4.459572076282187	0.2371628141268249	-0.1838350100004753	0.4840062702890298	-4.513863188704875	-4.513863188704823	1.005120043038892	0.01370183402574321	-1.210215691381363	-0.1954767578672957	7.535017642246379e-09	1.053487740410751e-08	5.817492494238668e-08	7.359201680823703e-08	-3.129097517755065e-09	-1.483344246716297e-08	1.051229147786168e-07
1.03	-0.1509900765062584	0.007813003069919203	0.6949512163422795	1.196403489146121	-0.232321422982133	-0.1243974067033599	-0.785098010005688	1.362914402158107	1.362914402158099	-0.1736503959700642	0.1741901610664963	0.4360686261522537	0.1878962971750892	0.09671734019217045	0.01135595694972881	0.05974088832718628	-0.2344103023116575	0.005487778247621239	-0.001221211403827757	0.01653453644763538	-0.1558664517478084	-0.1558664517478056	0.04299551495472034	0.0001572010929537653	-0.02531129882252013	-0.003155154000313957	-0.2829091241040431	0.01881716195408916	0.0169616187294592	-0.4363988888844519	-0.03600643598827843	0.01542697481025866	0.3296501983463272	-0.04302878799445409	-61.14189124832249	-5.510399253437247	3.019322431504341	7.262446727822212	-753.5681190972393	81.15427139202927	0.9244114872237368	0.1843520425098815	1.478837427630386	-4.413963272658052	0.2279364386683402	-0.1147963284814221	0.5910465705071739	-4.498445079188993	-4.498445079188464	1.083885616739798	0.008717558053527696	-1.211924417286769	-0.2153577823500412	1.124916662226317e-08	1.758697045624747e-08	8.020418687210348e-08	1.077921788932032e-07	-8.276164811479671e-09	-1.91279309231034e-08	1.48679843947542e-07
1.04	-0.1499767680992985	0.007935904950697599	0.6956225504189301	1.193838608728903	-0.2322551164145316	-0.1244163900532903	-0.784901993790679	1.361130551891949	1.361130551891946	-0.1731672562733806	0.1741923139423401	0.4357549341255074	0.1878540770689503	0.1059067316223731	0.01323572087286437	0.07451805877039439	-0.2785317660137772	0.007767319239092284	-0.00256957485988154	0.02281383290455512	-0.2009039088591377	-0.2009039088591314	0.05364757073227568	0.000276238828824488	-0.03742766965311006	-0.005300680801037357	-0.2832686969320992	0.01896407687432581	0.01702374041024731	-0.4358256201759269	-0.03661920086139361	0.01539326523800118	0.3302468195554426	-0.0430492633704204	-61.36608835600509	-5.547047735516578	3.005464890242659	7.31629854169721	-753.9939809786819	81.10457376063704	0.919269504265008	0.1918379647393773	1.477844450701268	-4.418724467512265	0.2298240989087304	-0.1767001058826558	0.6581578909071081	-4.514250217757605	-4.514250217757603	1.02330040843733	0.01736133052842109	-1.210893069959028	-0.209449331986953	1.450189893452487e-08	2.299348286006216e-08	9.968458952528147e-08	1.397959590211744e-07	-1.089349833257913e-08	-2.298480936889632e-08	1.859708458870489e-07
1.05	-0.1488726619443306	0.008077985020811992	0.696441356645392	1.190833580133155	-0.2321662230976983	-0.1244487538769672	-0.7846388392810514	1.358896440700875	1.358896440700869	-0.1725772297928637	0.1741957517691589	0.4353201133285433	0.1877900397380125	0.1148779435225461	0.01519582903919654	0.08922881676418964	-0.3224332094749631	0.01000272651172576	-0.003898681906139244	0.02996411442817954	-0.2459056484781063	-0.2459056484781056	0.06436990566479167	0.0004127539683004265	-0.04953200188695026	-0.007519830585853014	-0.2833254523577269	0.01903232054893465	0.01713670324415276	-0.4350886859124105	-0.03691011327658685	0.01532350029626505	0.3306150713283257	-0.04307066216145279	-61.46210799921056	-5.581032018745438	2.995888979867575	7.251977082017133	-754.0437475313241	81.01456832737448	0.8805697607059777	0.2004249139404997	1.465530605620186	-4.369736926448333	0.2191305633234051	-0.1103246197117679	0.7655200942040725	-4.491237283054567	-4.491237283055403	1.098527541535774	0.01205418161702441	-1.209530096621777	-0.2300654054946056	1.774021197591922e-08	2.834857086861669e-08	1.190853403260676e-07	1.717311022129897e-07	-1.343177767328406e-08	-2.682801250187213e-08	2.230660376006366e-07
1.06	-0.1476799391247978	0.008240131706861784	0.6974068382781721	1.187390760574583	-0.2320552294037607	-0.1244942704942566	-0.7842997705939661	1.356212691823793	1.356212691823791	-0.1718796144618439	0.174200606262559	0.4347643838499365	0.1877034273884737	0.1236300645352182	0.01724904405994424	0.1038531400340317	-0.366089958577215	0.0121873946596723	-0.005200133580975369	0.0379966683963615	-0.2908314460605981	-0.290831446060603	0.07516534083238922	0.0005595721461708904	-0.06160940598180087	-0.009815684521298702	-0.2833822077833968	0.01910056422352931	0.01724966607806671	-0.4343517516488961	-0.0372010256917788	0.01525373535450277	0.3309833231011708	-0.0430977722796291	-61.56672708710573	-5.61141525047747	2.979905368881355	7.187712450079805	-754.2383970048958	80.96551198716034	0.8754513267648488	0.2104593356224749	1.460557505910618	-4.369785595725459	0.219676273971344	-0.1711690315983405	0.8346123798186219	-4.499061810462245	-4.499061810462252	1.037920455453638	0.0194219382073306	-1.205507442161122	-0.224790162112966	2.060028921062446e-08	3.309184107931248e-08	1.354712568060294e-07	2.000402817525784e-07	-1.593968590379654e-08	-3.020020270748719e-08	2.543813414930179e-07
1.07	-0.1464007470825549	0.008423275457979515	0.6985180690483692	1.183512676203593	-0.2319226538961752	-0.1245527760282893	-0.7838761110859958	1.353080148874535	1.353080148874532	-0.1710738091565434	0.1742069852043836	0.43408798391724	0.1875934447665792	0.1321740786506484	0.01939521666531906	0.1183722251627601	-0.4094760908912935	0.01431800827437632	-0.006498117543616345	0.04687037930996507	-0.3356549858772112	-0.3356549858772142	0.08600430988257594	0.0007158548158487231	-0.07366930654929751	-0.01219691649142721	-0.2830948495143411	0.01910937243319234	0.01739784554816723	-0.4333501650056377	-0.03736083071018292	0.01516574620301562	0.3310387431985074	-0.04312861894123319	-61.60191859360228	-5.636743981718517	2.96218772852193	7.111853909551272	-753.9961811785651	80.87093064965056	0.8387445884092499	0.2190190735896557	1.444458933151286	-4.315395760041289	0.2083312833049436	-0.1086641856613106	0.9340223640106842	-4.470681108377098	-4.470681108376822	1.108173914997651	0.01373436918491661	-1.20603997881417	-0.2471502330274623	2.344024751944199e-08	3.780256779012217e-08	1.516968097582877e-07	2.281565908851338e-07	-1.844597864972432e-08	-3.354733903398732e-08	2.853892045438456e-07
1.08	-0.1450371412722619	0.00862834550526992	0.699773865653213	1.179202256767295	-0.2317690567768254	-0.124624171623361	-0.7833596600855152	1.349500034318887	1.349500034318887	-0.1701593564037016	0.1742149275604749	0.4332910232559139	0.1874591777212707	0.1405128181451612	0.0216343032944792	0.1327663069633696	-0.4525569716370654	0.01639171701247778	-0.007778145788830351	0.05655496689874602	-0.3803457673384749	-0.380345767338476	0.09689483034061974	0.0008722549990027285	-0.0857215517076034	-0.01467256920414223	-0.28280749124533	0.01911818064286109	0.01754602501826742	-0.4323485783623834	-0.03752063572858003	0.0150777570515429	0.3310941632958035	-0.04316441137016651	-61.64575033637374	-5.658477676925194	2.93806207588496	7.035136103418574	-753.9003837600794	80.81684283425072	0.8343964025813879	0.2290421403795269	1.435556840286847	-4.308735282064155	0.2082952986508319	-0.1675778881129473	0.9967877148541072	-4.472510139392366	-4.472510139392363	1.048230737025055	0.0194454409025704	-1.203976360322981	-0.2436743106302757	2.572834953945608e-08	4.131194100219895e-08	1.638035409753804e-07	2.515563662667618e-07	-2.004798046829299e-08	-3.632129133519297e-08	3.081626747850424e-07
